<svg xmlns="http://www.w3.org/2000/svg" xmlns:xlink="http://www.w3.org/1999/xlink" width="512" height="512" version="1.1" viewBox="0 0 512 512"><title>logo</title><defs><linearGradient id="linearGradient-1" x1="14.587%" x2="85.283%" y1="85.515%" y2="14.856%"><stop offset="0%" stop-color="#EC008C"/><stop offset="55.336%" stop-color="#FC6966"/><stop offset="100%" stop-color="#FFD319"/></linearGradient></defs><g id="Page-1" fill="none" fill-rule="evenodd" stroke="none" stroke-width="1"><g id="logo" fill="url(#linearGradient-1)" fill-rule="nonzero"><path id="Shape" d="M189,196 L189,178.6 C202.7,188.8 229.2,193.6 255.5,193.6 C281.8,193.6 308.3,188.8 322,178.6 L322,196 C322,208 292,217.8 255.5,217.8 C218.9,217.8 189,208 189,196 Z M322,212.6 L322,232.4 C318.3,243.4 289.7,251.8 255.5,251.8 C221.3,251.8 192.7,243.3 189,232.4 L189,212.4 C202.7,222.8 229.2,227.4 255.5,227.4 C281.8,227.4 308.3,222.8 322,212.6 Z M189,162 L189,144.6 C202.7,154.8 229.2,159.6 255.5,159.6 C281.8,159.6 308.3,154.8 322,144.6 L322,162 C322,174 292,184 255.5,184 C218.9,184 189,174 189,162 Z M255.5,150 C218.8,150 189,140 189,128 C189,116 218.8,106.2 255.5,106.2 C292.2,106.2 322,116 322,128 C322,140 292.2,150 255.5,150 Z M256,512 C114.6,512 0,397.4 0,256 C0,114.6 114.6,0 256,0 C397.4,0 512,114.6 512,256 C512,397.4 397.4,512 256,512 Z M256,509 C395.7,509 509,395.7 509,256 C509,116.3 395.6,3 256,3 C116.4,3 3,116.4 3,256 C3,395.6 116.3,509 256,509 Z M122,351.2 L178,300.2 L183,300.2 L126.5,351.2 L185.8,411.2 L180.8,411.2 L122.1,351.5 L122.1,411.3 L118.6,411.3 L118.6,300.3 L122,300.3 L122,351.3 L122,351.2 Z M199,374.5 C199,378.9 199.7,383.2 201,387.5 C202.3,391.8 204.3,395.5 207,399 C209.6,402.5 213,405.3 217,407.4 C221,409.4 226,410.4 231.5,410.4 C237.2,410.4 242.2,409.4 246.5,407.1 C251,405.1 254.8,401.7 258,397.4 L260.5,399.6 C257,404.2 252.8,407.6 248.1,410.1 C243.4,412.5 237.9,413.7 231.6,413.7 C226.3,413.7 221.4,412.7 217,410.7 C212.5,408.9 208.7,406.2 205.5,402.7 C202.3,399.3 199.9,395.2 198.1,390.4 C196.5,385.4 195.6,380.4 195.6,374.7 C195.6,369.2 196.6,364.2 198.3,359.7 C200.1,355 202.5,351 205.6,347.7 C208.6,344.3 212.3,341.7 216.6,339.9 C220.6,337.9 225.2,337.1 230,337.1 C235.6,337.1 240.5,338.1 244.7,340.1 C248.9,342.1 252.4,344.7 255.1,348.1 C258.1,351.1 260.1,354.9 261.4,359.1 C262.8,363.1 263.4,367.4 263.4,371.7 L263.4,374.7 L199,374.7 L199,374.5 Z M260,371.5 C260,366.8 259.2,362.5 257.6,358.5 C256.1,354.7 254.1,351.5 251.4,348.5 C248.8,345.9 245.7,343.7 242,342.2 C238.4,340.7 234.3,339.9 229.8,339.9 C224.3,339.9 219.8,340.9 215.8,343.3 C211.8,345.5 208.8,348.3 206.3,351.6 C203.8,354.9 202,358.4 200.9,362 C199.6,365.7 199.1,369 199.1,371.6 L260.1,371.6 L260,371.5 Z M300.7,435.2 C299.1,439.7 296.7,443.2 294.1,445.7 C291.4,448.1 287.8,449.3 283.4,449.3 C282.4,449.3 281.4,449.3 280.1,449 C278.9,449 277.8,448.7 277.1,448.3 L277.9,445.3 C278.5,445.6 279.4,445.8 280.5,446 C281.5,446.2 282.7,446.3 283.7,446.3 C285.9,446.3 287.7,445.9 289.5,445 C291.1,444.2 292.5,443 293.5,441.8 C294.8,440.5 295.7,439 296.5,437.4 C297.3,435.7 298,434 298.5,432.4 L305.5,413.4 L277,339.2 L280.6,339.2 L307.2,409.6 L332.8,339.2 L336.5,339.2 L300.7,435.2 L300.7,435.2 Z M377,411.2 L372.5,411.2 L344.1,339.2 L347.9,339.2 L374.9,407.9 L375.1,407.9 L401.1,339.1 L404.8,339.1 L377,411.4 L377,411.2 Z"/></g></g></svg>